<svg width="18" height="18" viewBox="0 0 18 18" fill="none" xmlns="http://www.w3.org/2000/svg">
  <path d="M9 1.125C4.65234 1.125 1.125 4.65234 1.125 9C1.125 13.3477 4.65234 16.875 9 16.875C13.3477 16.875 16.875 13.3477 16.875 9C16.875 4.65234 13.3477 1.125 9 1.125ZM14.4844 6.1875H12.7969C12.6211 5.33203 12.3633 4.51172 12.0234 3.76172C13.207 4.30078 14.1445 5.15625 14.4844 6.1875ZM9 2.25C9.59766 3.16406 10.0547 4.17188 10.3359 5.25H7.66406C7.94531 4.17188 8.40234 3.16406 9 2.25ZM2.25 9C2.25 8.57812 2.30156 8.17969 2.37891 7.78125H4.42969C4.38281 8.16797 4.35938 8.57812 4.35938 9C4.35938 9.42188 4.38281 9.83203 4.42969 10.2188H2.37891C2.30156 9.82031 2.25 9.42188 2.25 9ZM3.51562 11.8125H5.20312C5.37891 12.668 5.63672 13.4883 5.97656 14.2383C4.79297 13.6992 3.85547 12.8438 3.51562 11.8125ZM5.20312 6.1875H3.51562C3.85547 5.15625 4.79297 4.30078 5.97656 3.76172C5.63672 4.51172 5.37891 5.33203 5.20312 6.1875ZM9 15.75C8.40234 14.8359 7.94531 13.8281 7.66406 12.75H10.3359C10.0547 13.8281 9.59766 14.8359 9 15.75ZM10.6172 11.8125H7.38281C7.32422 11.4141 7.29375 11.0039 7.29375 10.5938V7.40625C7.29375 6.99609 7.32422 6.58594 7.38281 6.1875H10.6172C10.6758 6.58594 10.7062 6.99609 10.7062 7.40625V10.5938C10.7062 11.0039 10.6758 11.4141 10.6172 11.8125ZM12.0234 14.2383C12.3633 13.4883 12.6211 12.668 12.7969 11.8125H14.4844C14.1445 12.8438 13.207 13.6992 12.0234 14.2383ZM13.5703 10.2188C13.6172 9.83203 13.6406 9.42188 13.6406 9C13.6406 8.57812 13.6172 8.16797 13.5703 7.78125H15.6211C15.6984 8.17969 15.75 8.57812 15.75 9C15.75 9.42188 15.6984 9.82031 15.6211 10.2188H13.5703Z" fill="currentColor"/>
</svg>