<svg width="47" height="43" viewBox="0 0 47 43" fill="none" xmlns="http://www.w3.org/2000/svg">
<path d="M11.6476 0.198899C13.7127 -0.152972 15.8305 -0.0368982 17.8448 0.538564C19.8592 1.11403 21.7186 2.1342 23.2863 3.5239L23.3726 3.6009L23.4519 3.5309C24.9481 2.21792 26.707 1.23909 28.6113 0.659692C30.5157 0.0802949 32.5217 -0.0863414 34.4956 0.170899L35.0696 0.2549C37.5576 0.684488 39.8832 1.77893 41.8 3.42233C43.7168 5.06573 45.1535 7.19691 45.958 9.59018C46.7624 11.9835 46.9047 14.5497 46.3697 17.0173C45.8347 19.4848 44.6423 21.7617 42.9189 23.6069L42.4989 24.0386L42.3869 24.1342L25.0036 41.3519C24.6024 41.7489 24.071 41.9871 23.5076 42.0223C22.9443 42.0575 22.3874 41.8873 21.9399 41.5432L21.7206 41.3519L4.23692 24.0339C2.38476 22.2318 1.06755 19.9522 0.431156 17.4475C-0.205239 14.9429 -0.13598 12.311 0.631263 9.8433C1.39851 7.37561 2.83379 5.16843 4.77816 3.4662C6.72253 1.76397 9.10011 0.633124 11.6476 0.198899Z" fill="white"/>
</svg>
