<svg width="211" height="213" viewBox="0 0 211 213" fill="none" xmlns="http://www.w3.org/2000/svg">
<path d="M182.335 208.323C181.826 209.179 181.13 209.856 180.247 210.352C179.364 210.848 178.383 211.096 177.305 211.096C176.221 211.096 175.236 210.848 174.348 210.352C173.46 209.856 172.762 209.179 172.253 208.323C171.744 207.466 171.49 206.518 171.49 205.479C171.49 204.44 171.744 203.49 172.253 202.629C172.762 201.767 173.46 201.087 174.348 200.589C175.236 200.091 176.221 199.841 177.305 199.841C178.379 199.841 179.358 200.091 180.244 200.589C181.129 201.087 181.826 201.767 182.335 202.629C182.844 203.49 183.098 204.44 183.098 205.479C183.098 206.518 182.844 207.466 182.335 208.323ZM180.788 199.711C179.733 199.119 178.572 198.823 177.305 198.823C176.028 198.823 174.861 199.119 173.804 199.711C172.746 200.304 171.912 201.109 171.299 202.127C170.687 203.145 170.381 204.262 170.381 205.479C170.381 206.696 170.687 207.814 171.299 208.832C171.912 209.85 172.746 210.655 173.804 211.247C174.861 211.839 176.028 212.136 177.305 212.136C178.572 212.136 179.733 211.839 180.788 211.247C181.843 210.655 182.675 209.85 183.285 208.832C183.895 207.814 184.2 206.696 184.2 205.479C184.2 204.262 183.895 203.145 183.285 202.127C182.675 201.109 181.843 200.304 180.788 199.711ZM177.545 205.086H175.616V202.615H177.714C178.039 202.615 178.313 202.661 178.534 202.755C178.755 202.848 178.922 202.985 179.036 203.166C179.149 203.346 179.205 203.565 179.205 203.822C179.205 204.103 179.143 204.336 179.018 204.521C178.893 204.706 178.707 204.846 178.46 204.942C178.212 205.038 177.908 205.086 177.545 205.086ZM180.109 208.063L180.025 206.918C180.001 206.582 179.927 206.31 179.802 206.104C179.677 205.898 179.501 205.746 179.272 205.648C179.104 205.575 178.902 205.523 178.668 205.492C178.96 205.417 179.212 205.31 179.421 205.167C179.691 204.982 179.891 204.757 180.018 204.493C180.145 204.229 180.209 203.93 180.209 203.598C180.209 203.186 180.109 202.841 179.912 202.562C179.714 202.283 179.429 202.074 179.057 201.934C178.685 201.793 178.237 201.723 177.714 201.723H174.634V209.074H175.616V205.978H177.566C177.9 205.978 178.176 206.018 178.393 206.097C178.609 206.177 178.774 206.303 178.887 206.476C179 206.65 179.066 206.872 179.085 207.143L179.149 208.063C179.163 208.306 179.191 208.509 179.234 208.671C179.276 208.832 179.342 208.966 179.431 209.074H180.442C180.343 208.925 180.267 208.774 180.216 208.621C180.164 208.469 180.128 208.283 180.109 208.063ZM65.8503 0.00230408H0L123.339 212.451L137.598 187.825C149.159 167.859 149.138 143.283 137.543 123.335L65.8503 0.00230408ZM185.869 0C163.719 0 145.759 17.8373 145.745 39.8493L145.704 106.023H150.79C183.502 106.023 210.021 79.6693 210.021 47.161V0H185.869Z" fill="#004349"/>
</svg>
