<svg width="87" height="52" viewBox="0 0 87 52" fill="none" xmlns="http://www.w3.org/2000/svg">
<path d="M57.6092 45.2118C56.8623 47.7216 57.4141 49.2536 59.2668 49.8094C61.0792 50.351 63.3221 49.6671 65.9985 47.7443C66.8773 47.1134 67.9354 46.2497 69.1657 45.1675C70.8394 43.6863 71.726 42.8991 71.8355 42.807C71.4387 44.1144 71.289 45.4825 71.3766 46.9024C71.5518 49.7643 72.8532 51.2316 75.2522 51.8246C79.6581 52.9128 84.2126 48.7346 86.2755 44.9158C86.6718 44.1821 85.7477 43.6863 85.294 44.4845C83.8126 47.0869 80.5778 50.3056 77.3772 49.9836C76.05 49.851 75.2212 49.0447 74.9327 47.542C74.6766 46.1821 74.878 44.4527 75.5465 42.3715C75.5631 42.3112 75.7806 41.7649 76.2086 40.7199C76.6369 39.7199 76.9319 38.9168 77.0962 38.3C77.6647 36.2869 77.1891 35.6257 75.6872 36.3149C75.2436 36.519 74.6991 36.992 74.046 37.729C73.9529 37.8253 73.6951 38.1198 73.268 38.6077C72.979 38.9612 72.7534 39.2166 72.5822 39.3739C70.6844 41.2513 68.6922 42.8753 66.6129 44.2433C63.9831 45.9715 62.5207 46.3011 62.2316 45.2352C62.0225 44.1302 62.5982 42.7632 63.9679 41.1171C65.0492 39.8091 66.3874 38.5625 67.9982 37.3756C70.0541 35.8496 72.3184 35.0823 74.8009 35.0823C75.2522 35.0823 75.626 34.9709 75.9123 34.7527C76.1707 34.5498 76.3265 34.2873 76.3727 33.9648C76.4734 33.2274 76.1545 32.6125 75.4153 32.1159C73.7569 31.0405 69.7094 32.4361 67.9354 33.4984C63.6783 36.0477 59.0418 40.4319 57.6092 45.2118Z" fill="#263C87"/>
<path d="M53.0256 29.9305C54.4307 30.1809 55.7321 29.0792 55.4974 27.822C55.2242 26.3405 52.0245 25.7627 51.2575 27.5556C50.8809 28.4376 51.2031 29.6046 53.0256 29.9305Z" fill="#263C87"/>
<path d="M44.0821 45.8799C44.26 48.8087 45.5461 50.3681 47.9748 50.9184C53.2536 52.1187 57.7702 47.691 59.836 43.8139C60.2261 43.0824 59.3303 42.5373 58.8487 43.3723C57.2248 46.1926 53.389 49.732 50.1094 49.0031C43.6309 47.563 51.3135 35.5999 52.5419 33.1133C53.4863 31.2031 50.5103 30.106 49.3942 31.4265C48.5373 32.4394 46.5388 36.4627 46.0653 37.6026C45.0815 39.9632 43.9232 43.2727 44.0821 45.8799Z" fill="#263C87"/>
<path d="M0.312147 45.2118C-0.412097 47.7216 0.124061 49.2536 1.91948 49.8094C3.6782 50.351 5.85142 49.6671 8.44807 47.7443C9.29998 47.1134 10.3262 46.2497 11.5187 45.1675C13.1413 43.6863 14.0016 42.8991 14.1072 42.807C13.7228 44.1144 13.578 45.4825 13.6625 46.9024C13.8324 49.7643 15.0928 51.2316 17.42 51.8246C21.6935 52.9128 26.1091 48.7346 28.1102 44.9158C28.494 44.1821 27.5979 43.6863 27.1572 44.4845C25.7216 47.0869 22.5854 50.3056 19.4811 49.9836C18.1952 49.851 17.3899 49.0447 17.1115 47.542C16.8617 46.1821 17.058 44.4527 17.7068 42.3715C17.7216 42.3112 17.9336 41.7649 18.3482 40.7199C18.7632 39.7199 19.0497 38.9168 19.2092 38.3C19.7602 36.2869 19.2992 35.6257 17.8434 36.3149C17.413 36.519 16.8851 36.992 16.2505 37.729C16.1606 37.8253 15.9119 38.1198 15.4956 38.6077C15.2166 38.9612 14.997 39.2166 14.8326 39.3739C12.9907 41.2513 11.0582 42.8753 9.04368 44.2433C6.49218 45.9715 5.07406 46.3011 4.79469 45.2352C4.59085 44.1302 5.14894 42.7632 6.47772 41.1171C7.52665 39.8091 8.82408 38.5625 10.3869 37.3756C12.3797 35.8496 14.5753 35.0823 16.9826 35.0823C17.42 35.0823 17.7825 34.9709 18.0614 34.7527C18.3099 34.5498 18.4614 34.2873 18.5066 33.9648C18.6039 33.2274 18.2951 32.6125 17.5785 32.1159C15.9707 31.0405 12.0462 32.4361 10.3262 33.4984C6.19754 36.0477 1.70216 40.4319 0.312147 45.2118Z" fill="#263C87"/>
<path d="M31.8052 50.1374C30.2622 50.8669 27.9414 51.647 26.9343 50.6366C24.8811 48.5745 29.7823 35.6676 31.5324 32.4911C32.0838 31.4899 33.2771 30.8994 34.3023 31.331C35.6181 31.8852 35.4031 33.0001 34.8748 34.0902C33.4348 37.0558 30.0645 44.0065 29.9931 46.6889C29.9831 47.0488 30.4193 47.1479 31.0947 46.934C36.6984 45.14 44.6277 32.9479 46.9695 27.4115C47.2819 26.6757 47.6325 26.3812 47.9989 26.4504C48.3501 26.5179 48.6196 26.9675 48.388 27.6807C45.7589 35.7879 39.035 46.7235 31.8052 50.1374Z" fill="#263C87"/>
<path fill-rule="evenodd" clip-rule="evenodd" d="M4.84416 33.4917C1.25589 9.0922 20.7435 16.5277 26.0037 6.48499e-05C26.8559 5.80342 26.402 9.80367 25.148 12.7547C16.455 16.9978 6.25923 14.9698 4.84416 33.4917Z" fill="#5CCADF"/>
<path fill-rule="evenodd" clip-rule="evenodd" d="M25.6456 12.3751C28.5488 10.9944 31.2874 8.94571 33.4919 5.28841C33.0368 11.0902 31.69 14.858 29.7821 17.4306C26.5678 18.1559 23.346 18.1587 20.2715 18.5088C22.5072 16.9744 24.443 15.1379 25.6504 12.3712L25.6456 12.3751Z" fill="#FCD40E"/>
<path fill-rule="evenodd" clip-rule="evenodd" d="M25.5584 12.3391C24.3743 15.1837 22.4753 17.0725 20.2828 18.6508C14.3105 19.363 8.91051 21.4683 5.28711 33.4917C6.70024 14.5984 16.8792 16.6672 25.5584 12.3391Z" fill="#F3691D"/>
<path fill-rule="evenodd" clip-rule="evenodd" d="M29.6795 17.6351C32.7698 16.9129 35.8504 15.4871 38.7787 12.3391C31.5159 36.2249 17.1407 20.7433 5.28711 33.4917C11.9796 21.9564 23.6684 26.068 29.6826 17.634L29.6795 17.6351Z" fill="#78CA2A"/>
<path fill-rule="evenodd" clip-rule="evenodd" d="M29.9652 17.6272C23.8816 26.065 12.057 21.9513 5.28711 33.4917C10.8205 15.4952 20.4333 19.8352 29.9652 17.6272Z" fill="#58941E"/>
</svg>
