<svg width="110" height="36" viewBox="0 0 110 36" fill="none" xmlns="http://www.w3.org/2000/svg">
<path d="M29.2802 2.975V25.9282H31.5111C33.1385 25.9282 34.4579 24.6089 34.4579 22.9815V0.0282917H32.227C30.5995 0.0282917 29.2802 1.34759 29.2802 2.975ZM17.6618 4.88062L17.6568 12.95H18.2731C22.2373 12.95 25.451 9.73642 25.451 5.7722V0.0212231H22.5242C19.8399 0.0212231 17.6634 2.19636 17.6618 4.88062ZM96.5742 15.5564C95.1943 15.5564 93.8937 15.895 92.7501 16.493L94.898 10.3432C95.8235 7.64079 96.3788 4.86433 96.5639 3.56868C96.749 4.86433 97.3043 7.64079 98.2297 10.3432L100.373 16.4796C99.2356 15.8898 97.9439 15.5564 96.5742 15.5564ZM99.8956 0.0148468H93.1211L83.6812 25.9282H88.1318C88.8761 25.9282 89.5484 25.4882 89.8511 24.8081C91.0604 22.0909 92.8535 19.4869 96.5639 19.4869C100.24 19.4869 102.001 22.0885 103.203 24.8044C103.504 25.4865 104.178 25.9282 104.923 25.9282H109.372L99.8956 0.0148468ZM49.0979 21.2808H43.2822C43.2822 21.2808 43.2732 21.1684 43.2583 20.9711V13.8051C43.2706 13.8314 43.2834 13.8608 43.2967 13.894C43.877 15.3447 45.9401 15.4239 48.5193 15.925C51.0053 16.408 53.4725 16.5597 53.4652 18.9547C53.4583 21.1829 51.4104 21.3277 49.0979 21.2808ZM43.2703 4.63011H48.6412C51.1969 4.63011 52.7897 5.88955 52.7897 7.96379C52.7897 10.001 51.1599 11.3344 48.6782 11.3344C45.8632 11.3344 43.2703 10.0751 43.2703 6.22286V4.63011ZM50.1968 12.8901C54.1601 12.6308 58.1605 10.7047 58.1605 6.33401C58.1605 2.51884 55.0491 0.0001297 49.7153 0.0001297H38.0847V25.9282H50.1598C55.5677 25.9282 59.2717 23.6317 59.2717 19.5573C59.2717 15.0014 54.975 13.3716 50.1968 12.8901ZM66.9667 7.588C66.9665 6.8662 66.9667 4.64431 66.9667 4.64431H71.9277C75.2193 4.64431 77.0685 6.08669 77.0685 8.37974C77.0685 10.5249 75.2193 12.0782 72.3714 12.0782C69.5745 12.0782 66.9675 10.7057 66.9667 7.588ZM73.1851 14.5562C73.444 14.6671 73.8138 14.7411 74.1467 14.7411C78.0301 14.7411 82.1354 12.3371 82.1354 7.5661C82.1354 3.01695 78.8437 0.0212231 73.0372 0.0212231H61.7938V3.3279H61.7896V25.9167H66.9667V14.7865C67.8288 15.8446 69.1009 16.7962 71.9036 19.1453C76.1335 22.6908 76.8146 25.9167 76.8146 25.9167H82.3859C81.4243 19.2595 76.5138 16.7383 73.1851 14.5562ZM106.221 1.10282H106.649C106.713 1.10282 106.767 1.11157 106.811 1.12901C106.856 1.14646 106.889 1.17357 106.913 1.21025C106.936 1.24693 106.948 1.29208 106.948 1.34562C106.948 1.39916 106.935 1.44431 106.911 1.48099C106.886 1.51767 106.849 1.54508 106.799 1.5631C106.749 1.58118 106.687 1.59016 106.614 1.59016H106.221V1.10282ZM106.221 1.88187H106.621C106.686 1.88187 106.74 1.89033 106.782 1.90719C106.825 1.92412 106.857 1.9506 106.878 1.9867C106.899 2.0228 106.911 2.07049 106.916 2.12995L106.93 2.32552C106.935 2.38961 106.942 2.44171 106.951 2.48186C106.96 2.52208 106.975 2.55673 106.996 2.58582H107.348C107.322 2.54624 107.303 2.50753 107.292 2.46964C107.28 2.4318 107.272 2.38382 107.267 2.32552L107.246 2.07049C107.239 1.9867 107.221 1.91942 107.19 1.86878C107.16 1.81813 107.115 1.78116 107.057 1.75786C107.018 1.74239 106.97 1.73121 106.916 1.72344C106.986 1.70536 107.046 1.68068 107.095 1.64869C107.164 1.6039 107.215 1.54885 107.246 1.48359C107.278 1.4184 107.293 1.34562 107.293 1.26525C107.293 1.16164 107.268 1.07576 107.217 1.00761C107.165 0.939524 107.093 0.888819 106.999 0.855673C106.905 0.822468 106.793 0.805838 106.663 0.805838H105.885V2.58582H106.221V1.88187ZM7.97995 0.021513H0L14.9466 25.9282L16.6745 22.9254C18.0755 20.4905 18.073 17.4937 16.6678 15.0612L7.97995 0.021513ZM105.37 1.03554C105.49 0.830059 105.655 0.667862 105.865 0.549068C106.074 0.430334 106.306 0.370939 106.562 0.370939C106.815 0.370939 107.047 0.430334 107.256 0.549068C107.465 0.667862 107.629 0.830059 107.748 1.03554C107.868 1.24114 107.927 1.46789 107.927 1.71591C107.927 1.96398 107.868 2.19016 107.748 2.39454C107.629 2.59892 107.465 2.7599 107.257 2.87753C107.048 2.99517 106.816 3.05393 106.562 3.05393C106.306 3.05393 106.074 2.99517 105.865 2.87753C105.655 2.7599 105.49 2.59892 105.37 2.39454C105.25 2.19016 105.19 1.96398 105.19 1.71591C105.19 1.46789 105.25 1.24114 105.37 1.03554ZM105.683 3.17359C105.948 3.32327 106.241 3.39808 106.562 3.39808C106.881 3.39808 107.173 3.32327 107.438 3.17359C107.704 3.02397 107.913 2.82051 108.066 2.56311C108.219 2.30576 108.296 2.02338 108.296 1.71591C108.296 1.40734 108.219 1.12438 108.066 0.867029C107.913 0.609625 107.704 0.40617 107.438 0.256491C107.173 0.106871 106.881 0.0320587 106.562 0.0320587C106.241 0.0320587 105.948 0.106871 105.683 0.256491C105.417 0.40617 105.207 0.609625 105.053 0.867029C104.899 1.12438 104.822 1.40734 104.822 1.71591C104.822 2.02338 104.899 2.30576 105.053 2.56311C105.207 2.82051 105.417 3.02397 105.683 3.17359Z" fill="#004349"/>
<path d="M73.6043 31.3826C73.4595 31.3826 73.3147 31.3826 73.1396 31.4007V34.0981C73.2965 34.1101 73.4655 34.1162 73.6586 34.1162C74.5699 34.1162 75.0526 33.5549 75.0526 32.7282C75.0526 31.9257 74.5758 31.3826 73.6043 31.3826Z" fill="#004349"/>
<path d="M61.1965 31.3464C61.1028 31.3464 61.0105 31.3491 60.9195 31.3538C60.7497 31.3626 60.6172 31.5042 60.6172 31.6743V32.674C60.8164 32.686 61.0155 32.686 61.2025 32.686C61.7818 32.686 62.0112 32.3844 62.0112 31.9921C62.0112 31.5878 61.7517 31.3464 61.1965 31.3464Z" fill="#004349"/>
<path d="M104.183 34.7771C103.453 34.7771 103.019 34.5121 102.789 34.295C102.789 34.2945 102.789 34.2939 102.789 34.2933L102.819 34.1224C102.859 33.8899 103.125 33.7651 103.323 33.8934C103.551 34.0412 103.846 34.1435 104.189 34.1435C104.708 34.1435 104.937 33.9262 104.937 33.6185C104.937 33.365 104.816 33.1779 104.098 33.0029C103.477 32.8581 102.909 32.6046 102.903 31.8382C102.903 31.1685 103.44 30.7098 104.261 30.7098C104.9 30.7098 105.304 30.9024 105.552 31.0953C105.552 31.0958 105.552 31.0964 105.552 31.0971C105.543 31.2063 105.503 31.3234 105.441 31.4252C105.357 31.5651 105.174 31.6086 105.03 31.5305C104.821 31.4165 104.565 31.3375 104.237 31.3375C103.821 31.3375 103.573 31.5366 103.573 31.79C103.573 32.0434 103.694 32.1823 104.358 32.3452C105.112 32.5323 105.607 32.834 105.613 33.546C105.619 34.3305 105.064 34.7771 104.183 34.7771ZM99.3004 31.0961C99.3001 31.2659 99.1563 31.4007 98.9865 31.4007H98.0936V34.6655C97.9789 34.6835 97.8703 34.7016 97.7496 34.7016C97.641 34.7016 97.5263 34.6835 97.4117 34.6655V31.4007H96.5157C96.3454 31.4007 96.1991 31.2664 96.1987 31.0961V31.093C96.1987 30.9904 96.2108 30.8878 96.2349 30.7852H99.2643C99.2884 30.8878 99.3004 30.9904 99.3004 31.093V31.0961ZM92.7104 34.2518C92.7104 34.497 92.5139 34.6944 92.2689 34.7022C92.2028 34.7043 92.1381 34.7042 92.0768 34.7023L90.2845 32.1316L90.1759 31.9265L90.188 32.1678V34.3707C90.188 34.5569 90.0397 34.714 89.8535 34.7144H89.8501C89.7414 34.7144 89.6449 34.7023 89.5181 34.6782V31.1524C89.5181 30.9577 89.6664 30.7926 89.8605 30.7772C89.9594 30.7694 90.0629 30.7705 90.1578 30.786L91.944 33.3566L92.0526 33.5497L92.0405 33.2782V31.1082C92.0405 30.9258 92.1865 30.7743 92.3689 30.7739H92.3725C92.4871 30.7739 92.5957 30.786 92.7104 30.8101V34.2518ZM86.0298 34.364C86.0294 34.5403 85.8802 34.6805 85.7038 34.6805H83.4531V30.8064H85.9332C85.9574 30.9029 85.9695 31.0176 85.9695 31.1202C85.9692 31.2902 85.8314 31.4279 85.6614 31.4279H84.1349V32.3874H85.7341C85.7582 32.49 85.7703 32.5926 85.7703 32.6952V32.6982C85.7701 32.8666 85.6336 33.0029 85.4653 33.0029H84.1349V34.065H85.9875C86.0177 34.1615 86.0298 34.2641 86.0298 34.3607V34.364ZM79.9647 34.3761C79.9647 34.5595 79.8196 34.7163 79.6362 34.7167H79.6327C79.5121 34.7167 79.4034 34.7046 79.2828 34.6805V31.1053C79.2828 30.9203 79.4326 30.7704 79.6175 30.7702H79.6207C79.7354 30.7702 79.85 30.7822 79.9647 30.8124V34.3761ZM73.622 34.7439C73.1816 34.7439 72.8557 34.7318 72.4514 34.6714V30.8275C72.8316 30.7672 73.1272 30.743 73.5858 30.743C75.016 30.743 75.7944 31.5335 75.7944 32.7102C75.7944 33.9353 74.9497 34.7439 73.622 34.7439ZM68.963 34.364C68.9626 34.5403 68.8134 34.6805 68.6371 34.6805H66.3863V30.8064H68.8664C68.8905 30.9029 68.9026 31.0176 68.9026 31.1202V31.1235C68.9023 31.2931 68.7588 31.4279 68.5892 31.4279H67.0682V32.3874H68.6673C68.6915 32.49 68.7035 32.5926 68.7035 32.6952V32.6982C68.7031 32.8681 68.5594 33.0029 68.3895 33.0029H67.0682V34.065H68.9207C68.951 34.1615 68.963 34.2641 68.963 34.3607V34.364ZM62.3548 34.7197H62.3528C62.2237 34.7197 62.1041 34.652 62.0377 34.5415L61.2747 33.2715H61.1841C61.0031 33.2715 60.81 33.2715 60.6169 33.2594V34.3825C60.6169 34.572 60.466 34.7314 60.2766 34.7318H60.2729C60.1583 34.7318 60.0497 34.7197 59.9289 34.6956V30.8818C60.285 30.8033 60.7557 30.7551 61.166 30.7551C62.2402 30.7551 62.7048 31.2318 62.7048 31.9559C62.7048 32.5352 62.3971 32.9215 61.9505 33.1206L62.8979 34.6594C62.7471 34.7016 62.554 34.7197 62.3548 34.7197ZM56.4406 34.0495C56.4406 34.3418 56.2449 34.5954 55.9636 34.6749C55.7194 34.744 55.4296 34.7891 55.0889 34.7891C53.9061 34.7891 53.0733 34.0167 53.0733 32.7615C53.0733 31.4943 53.9543 30.6978 55.0889 30.6978C55.6802 30.6978 56.1026 30.8546 56.3621 31.0357C56.3495 31.1178 56.3273 31.1978 56.295 31.2722C56.2083 31.472 55.9685 31.5657 55.769 31.4784C55.5758 31.3938 55.3574 31.3495 55.0828 31.3495C54.3708 31.3495 53.8095 31.8504 53.8095 32.7555C53.8095 33.5943 54.2319 34.1495 55.0949 34.1495C55.3785 34.1495 55.5957 34.1133 55.7647 34.059V33.202H55.3302C55.1505 33.202 54.9987 33.0591 54.9983 32.8794C54.9983 32.8783 54.9983 32.8772 54.9983 32.8762C54.9983 32.7736 55.0104 32.6711 55.0345 32.5624H56.4406V34.0495ZM49.585 34.2518C49.585 34.497 49.3885 34.6944 49.1435 34.7022C49.0774 34.7043 49.0127 34.7042 48.9514 34.7023L47.1591 32.1316L47.0505 31.9265L47.0625 32.1678V34.3707C47.0625 34.5569 46.9143 34.714 46.7281 34.7144H46.7246C46.616 34.7144 46.5194 34.7023 46.3927 34.6782V31.1524C46.3927 30.9577 46.541 30.7926 46.7351 30.7772C46.8339 30.7694 46.9375 30.7705 47.0324 30.786L48.8186 33.3566L48.9272 33.5497L48.9151 33.2782V31.1082C48.9151 30.9258 49.0611 30.7743 49.2434 30.7739H49.2471C49.3617 30.7739 49.4703 30.786 49.585 30.8101V34.2518ZM42.9044 34.3761C42.9044 34.5595 42.7593 34.7163 42.5759 34.7167H42.5725C42.4518 34.7167 42.3432 34.7046 42.2224 34.6805V31.1053C42.2224 30.9203 42.3722 30.7704 42.5572 30.7702H42.5604C42.675 30.7702 42.7898 30.7822 42.9044 30.8124V34.3761ZM104.254 29.5507H38.0117V30.9234C38.0117 33.7271 40.2846 36 43.0883 36H109.331V34.6273C109.331 31.8236 107.058 29.5507 104.254 29.5507Z" fill="#004349"/>
</svg>
