<svg width="161" height="50" viewBox="0 0 161 50" fill="none" xmlns="http://www.w3.org/2000/svg">
<path d="M139.339 47.548C139.158 47.8692 138.912 48.1204 138.6 48.3018C138.289 48.4833 137.947 48.574 137.574 48.574C137.206 48.574 136.866 48.4833 136.555 48.3018C136.244 48.1204 135.997 47.8692 135.813 47.548C135.629 47.2271 135.537 46.8711 135.537 46.4802C135.537 46.0896 135.629 45.7349 135.813 45.4167C135.997 45.0984 136.244 44.8486 136.555 44.6671C136.866 44.4858 137.206 44.3949 137.574 44.3949C137.947 44.3949 138.289 44.4858 138.6 44.6671C138.912 44.8486 139.158 45.0984 139.339 45.4167C139.52 45.7349 139.61 46.0896 139.61 46.4802C139.61 46.8711 139.52 47.2271 139.339 47.548ZM139.258 43.725C138.769 43.4402 138.207 43.2978 137.574 43.2978C136.94 43.2978 136.38 43.4402 135.893 43.725C135.407 44.0097 135.029 44.3936 134.761 44.8765C134.492 45.3594 134.358 45.894 134.358 46.4802C134.358 47.0664 134.492 47.6024 134.761 48.0882C135.029 48.574 135.407 48.9578 135.893 49.2397C136.38 49.5217 136.94 49.6627 137.574 49.6627C138.207 49.6627 138.769 49.5217 139.258 49.2397C139.747 48.9578 140.127 48.574 140.395 48.0882C140.664 47.6024 140.798 47.0664 140.798 46.4802C140.798 45.894 140.664 45.3594 140.395 44.8765C140.127 44.3936 139.747 44.0097 139.258 43.725ZM127.509 47.5552C127.328 47.8769 127.081 48.1285 126.77 48.3102C126.458 48.492 126.115 48.5828 125.741 48.5828C125.373 48.5828 125.033 48.492 124.721 48.3102C124.41 48.1285 124.162 47.8769 123.977 47.5552C123.793 47.2336 123.701 46.8771 123.701 46.4856C123.701 46.0942 123.793 45.7389 123.977 45.4203C124.162 45.1014 124.41 44.8512 124.721 44.6694C125.033 44.4877 125.373 44.3968 125.741 44.3968C126.115 44.3968 126.458 44.4877 126.77 44.6694C127.081 44.8512 127.328 45.1014 127.509 45.4203C127.691 45.7389 127.781 46.0942 127.781 46.4856C127.781 46.8771 127.691 47.2336 127.509 47.5552ZM127.429 43.7257C126.938 43.4405 126.376 43.2978 125.741 43.2978C125.107 43.2978 124.546 43.4405 124.058 43.7257C123.571 44.0109 123.193 44.3954 122.923 44.8791C122.654 45.3629 122.52 45.8984 122.52 46.4856C122.52 47.0728 122.654 47.6097 122.923 48.0963C123.193 48.5828 123.571 48.9673 124.058 49.2497C124.546 49.5322 125.107 49.6734 125.741 49.6734C126.376 49.6734 126.938 49.5322 127.429 49.2497C127.919 48.9673 128.298 48.5828 128.568 48.0963C128.837 47.6097 128.971 47.0728 128.971 46.4856C128.971 45.8984 128.837 45.3629 128.568 44.8791C128.298 44.3954 127.919 44.0109 127.429 43.7257ZM98.576 11.0231C98.5758 9.97442 98.576 6.74672 98.576 6.74672H105.879C110.724 6.74672 113.446 8.84212 113.446 12.1732C113.446 15.2895 110.724 17.5461 106.532 17.5461C102.415 17.5461 98.5772 15.5521 98.576 11.0231ZM107.73 21.1459C108.111 21.3071 108.655 21.4145 109.145 21.4145C114.862 21.4145 120.905 17.9222 120.905 10.9913C120.905 4.38267 116.059 0.0306396 107.512 0.0306396H90.9614V4.83437H90.9552V37.6495H98.576V21.4805C99.8451 23.0176 101.718 24.3999 105.843 27.8126C112.07 32.9632 113.072 37.6495 113.072 37.6495H121.273C119.858 27.9785 112.629 24.3158 107.73 21.1459ZM72.2728 30.9149H63.712C63.712 30.9149 63.6988 30.7515 63.6769 30.4648V20.0547C63.6951 20.093 63.7138 20.1357 63.7334 20.1839C64.5876 22.2914 67.6246 22.4064 71.4211 23.1344C75.0806 23.836 78.7124 24.0565 78.7016 27.5356C78.6914 30.7725 75.677 30.9829 72.2728 30.9149ZM63.6946 6.72609H71.6006C75.3627 6.72609 77.7072 8.55563 77.7072 11.569C77.7072 14.5284 75.3081 16.4655 71.6551 16.4655C67.5113 16.4655 63.6946 14.636 63.6946 9.03993V6.72609ZM73.8905 18.7255C79.7246 18.3489 85.6132 15.5508 85.6132 9.20131C85.6132 3.65901 81.0332 3.8147e-06 73.1818 3.8147e-06H56.0613V37.6663H73.836C81.7965 37.6663 87.2489 34.3302 87.2489 28.4111C87.2489 21.7926 80.9241 19.425 73.8905 18.7255ZM160.667 46.7087C160.445 46.4505 160.191 46.2707 159.903 46.1697C159.616 46.0686 159.276 45.9816 158.884 45.9086C158.85 45.9031 158.812 45.8975 158.773 45.8917C158.733 45.8862 158.693 45.8778 158.653 45.8665C158.34 45.8048 158.09 45.7458 157.902 45.6896C157.715 45.6336 157.551 45.5507 157.412 45.4412C157.272 45.3317 157.203 45.19 157.203 45.0159C157.203 44.7969 157.308 44.6384 157.518 44.5401C157.729 44.442 157.973 44.3927 158.252 44.3927C158.696 44.3927 159.143 44.4994 159.592 44.7128C159.717 44.7746 159.831 44.8054 159.933 44.8054C160.104 44.8054 160.249 44.7211 160.369 44.5527L160.71 44.0895C160.357 43.8257 160.003 43.6277 159.647 43.4958C159.292 43.364 158.869 43.2978 158.38 43.2978C157.743 43.2978 157.188 43.4397 156.716 43.7231C156.244 44.0067 156.008 44.4769 156.008 45.1338C156.008 45.5886 156.141 45.9438 156.409 46.1992C156.676 46.4547 156.959 46.6287 157.258 46.7213C157.557 46.8139 157.934 46.9053 158.389 46.995C158.713 47.0569 158.968 47.1158 159.152 47.1719C159.337 47.228 159.492 47.3108 159.618 47.4203C159.743 47.5298 159.805 47.6744 159.805 47.854C159.805 48.0675 159.71 48.2429 159.519 48.3804C159.329 48.518 159.026 48.5867 158.611 48.5867C158.366 48.5867 158.104 48.5446 157.826 48.4604C157.547 48.3762 157.279 48.2696 157.023 48.1404C156.892 48.073 156.776 48.0393 156.674 48.0393C156.508 48.0393 156.369 48.1235 156.255 48.2919L155.957 48.7384C156.366 49.0415 156.767 49.2732 157.16 49.4331C157.552 49.5931 158.042 49.6731 158.628 49.6731C159.356 49.6731 159.933 49.5131 160.36 49.1931C160.787 48.8731 161 48.4043 161 47.7867C161 47.3263 160.889 46.967 160.667 46.7087ZM148.133 48.5814H146.817V44.3964H148.133C148.698 44.3964 149.173 44.5461 149.555 44.8455C149.938 45.1449 150.13 45.6955 150.13 46.4977C150.13 47.887 149.464 48.5814 148.133 48.5814ZM149.887 43.6859C149.401 43.4273 148.816 43.2978 148.133 43.2978H145.58V49.68H148.133C148.828 49.68 149.418 49.5507 149.904 49.2921C150.39 49.0334 150.757 48.6643 151.004 48.1847C151.252 47.7052 151.375 47.14 151.375 46.489C151.375 45.838 151.249 45.2726 150.995 44.7932C150.742 44.3136 150.373 43.9446 149.887 43.6859ZM142.159 22.5988C140.127 22.5988 138.213 23.0908 136.53 23.9596L139.691 15.0256C141.054 11.0997 141.871 7.06639 142.144 5.18409C142.416 7.06639 143.233 11.0997 144.596 15.0256L147.751 23.9401C146.076 23.0833 144.175 22.5988 142.159 22.5988ZM147.048 0.0213776H137.076L123.18 37.6663H129.731C130.827 37.6663 131.817 37.027 132.262 36.0391C134.042 32.0917 136.682 28.3088 142.144 28.3088C147.555 28.3088 150.147 32.0882 151.916 36.0337C152.36 37.0245 153.351 37.6663 154.449 37.6663H160.998L147.048 0.0213776ZM113.107 49.6789H113.761C113.949 49.6789 114.093 49.6296 114.194 49.5307C114.294 49.4319 114.344 49.2896 114.344 49.1036V47.1683H116.525C116.714 47.1683 116.858 47.119 116.958 47.0201C117.058 46.9214 117.108 46.779 117.108 46.593V46.0874H114.344V44.3788H117.276C117.465 44.3788 117.609 44.3324 117.709 44.2393C117.809 44.1464 117.859 44.0127 117.859 43.8383V43.2978H113.107V49.6789ZM25.9984 7.08995L25.991 18.8125H26.8984C32.7337 18.8125 37.4642 14.1441 37.4642 8.38522V0.0306396H33.156C29.2047 0.0306396 26.0009 3.19053 25.9984 7.08995ZM156.359 1.60193H156.989C157.083 1.60193 157.163 1.61457 157.228 1.63994C157.293 1.66531 157.343 1.70467 157.377 1.75797C157.411 1.81126 157.428 1.87682 157.428 1.95465C157.428 2.0324 157.41 2.09797 157.374 2.15126C157.338 2.20455 157.284 2.24437 157.21 2.27056C157.136 2.29683 157.045 2.30985 156.937 2.30985H156.359V1.60193ZM156.359 2.73363H156.948C157.044 2.73363 157.123 2.7459 157.185 2.77044C157.248 2.79498 157.295 2.83352 157.326 2.8859C157.356 2.93837 157.375 3.00769 157.382 3.09403L157.403 3.37818C157.41 3.47129 157.42 3.54694 157.434 3.60527C157.447 3.66368 157.47 3.71404 157.5 3.75626H158.017C157.98 3.69876 157.952 3.64253 157.935 3.58751C157.918 3.53256 157.906 3.46278 157.899 3.37818L157.868 3.00769C157.858 2.8859 157.83 2.7882 157.786 2.71466C157.741 2.64104 157.676 2.58738 157.589 2.5535C157.532 2.53107 157.462 2.51474 157.381 2.50345C157.484 2.47726 157.573 2.44135 157.646 2.39484C157.748 2.3298 157.822 2.24986 157.868 2.1551C157.914 2.06041 157.938 1.95465 157.938 1.83791C157.938 1.68736 157.9 1.56256 157.824 1.46358C157.749 1.36467 157.642 1.29106 157.504 1.24281C157.366 1.19464 157.201 1.17048 157.009 1.17048H155.865V3.75626H156.359V2.73363ZM11.7466 0.0310173H0L22.0016 37.6663L24.5451 33.3039C26.6075 29.7668 26.6037 25.4132 24.5353 21.8795L11.7466 0.0310173ZM155.107 1.50422C155.283 1.20562 155.526 0.970024 155.834 0.797504C156.143 0.624981 156.485 0.538643 156.86 0.538643C157.234 0.538643 157.575 0.624981 157.882 0.797504C158.19 0.970024 158.432 1.20562 158.607 1.50422C158.783 1.80283 158.871 2.13221 158.871 2.49253C158.871 2.85294 158.783 3.1815 158.607 3.47844C158.432 3.77531 158.19 4.00917 157.884 4.18004C157.577 4.35098 157.235 4.43634 156.86 4.43634C156.485 4.43634 156.143 4.35098 155.834 4.18004C155.526 4.00917 155.283 3.77531 155.107 3.47844C154.93 3.1815 154.842 2.85294 154.842 2.49253C154.842 2.13221 154.93 1.80283 155.107 1.50422ZM155.567 4.61022C155.958 4.82753 156.389 4.93622 156.86 4.93622C157.33 4.93622 157.76 4.82753 158.151 4.61022C158.542 4.39283 158.85 4.09717 159.075 3.7233C159.301 3.34942 159.413 2.93919 159.413 2.49253C159.413 2.0443 159.301 1.63324 159.075 1.25937C158.85 0.885494 158.542 0.589828 158.151 0.372444C157.76 0.15506 157.33 0.0463715 156.86 0.0463715C156.389 0.0463715 155.958 0.15506 155.567 0.372444C155.176 0.589828 154.867 0.885494 154.64 1.25937C154.413 1.63324 154.299 2.0443 154.299 2.49253C154.299 2.93919 154.413 3.34942 154.64 3.7233C154.867 4.09717 155.176 4.39283 155.567 4.61022ZM43.1009 4.32162V37.6663H46.3849C48.7805 37.6663 50.7225 35.7497 50.7225 33.3855V0.0408783H47.4386C45.0429 0.0408783 43.1009 1.95743 43.1009 4.32162Z" fill="#004349"/>
</svg>
