<svg width="68" height="53" viewBox="0 0 68 53" fill="none" xmlns="http://www.w3.org/2000/svg">
<path d="M44.8928 52.3458C39.1357 52.3458 31.1018 50.4523 24.2455 47.2177C14.8901 42.8128 6.59457 35.6072 2.61689 28.9144C0.928998 26.0611 0 23.5891 0 20.2887C0 15.7261 2.73465 12.3205 6.94785 9.65129C9.52549 8.02083 12.6789 6.69279 16.0416 5.45679C25.5278 1.93289 34.6084 0 43.6629 0C53.7772 0 57.467 2.56403 61.3531 6.20628C65.7233 10.2956 68 16.7254 68 23.1815C68 29.6376 67.3981 33.0563 65.7887 37.5795C64.3887 41.5111 61.8765 45.5872 58.3698 48.125C54.8632 50.6495 49.4462 52.3458 44.8797 52.3458" fill="#95C11F"/>
<path d="M44.6708 50.702C39.5809 50.6494 32.5284 48.8743 26.5095 45.9421C18.3056 41.9448 10.8867 35.2784 7.38002 29.6506C5.88839 27.2444 5.07715 25.1669 5.07715 22.3924C5.07715 18.553 7.58937 15.9363 11.2792 13.6616C13.5428 12.2678 16.3429 11.1896 19.2607 10.0588C27.3338 6.94248 35.6032 5.03589 43.5847 5.03589C52.5084 5.03589 55.701 6.92933 59.1291 9.99302C62.989 13.438 65.0564 19.4208 65.0564 24.8513C65.0564 30.2818 64.6769 34.0555 63.2638 37.8424C61.9684 41.3137 59.8618 45.0085 56.7346 47.2307C53.6205 49.4397 48.6877 50.7809 44.6577 50.7283" fill="#673401"/>
<path d="M26.6671 33.9504V25.0749C26.6671 23.76 26.5886 22.9316 25.9474 22.2084C25.4371 21.6167 24.5997 21.2617 23.4614 21.2617C21.5118 21.2617 20.3865 22.524 20.3865 23.4444V33.9636H16.8145V18.5925C16.8145 18.5925 18.0444 18.2375 19.1042 18.8292C19.4837 19.0396 19.7846 19.605 20.0463 20.0257C20.766 19.0396 22.4539 18.3032 24.338 18.3032C26.2222 18.3032 27.5961 18.8555 28.6428 19.9468C29.6896 21.0382 30.2129 22.5635 30.2129 24.5358V33.9636H26.6409L26.6671 33.9504Z" fill="white"/>
<path d="M40.6271 23.9441C40.6271 22.169 39.4626 21.288 37.2121 21.288C36.6363 21.288 36.0868 21.3538 35.5896 21.4458C33.9279 21.7614 33.1297 20.2756 33.0774 19.1973C34.2157 18.6319 35.7597 18.3032 37.4607 18.3032C39.7897 18.3032 41.5038 18.8423 42.5898 19.9074C43.6758 20.9724 44.2122 22.9974 44.2122 25.969V29.2563C44.2122 31.3075 44.6179 32.5961 45.4422 33.122C45.1543 33.6348 44.4739 34.2528 43.4272 34.2528C42.9169 34.2528 42.2365 34.0688 41.8309 33.6743C41.4253 33.293 41.1374 32.8722 41.0066 32.4251C40.6794 32.9642 40.1561 33.385 39.3187 33.7532C38.5205 34.095 37.67 34.2528 36.7934 34.2528C35.1447 34.2528 33.8493 33.8452 32.9073 33.0168C31.9652 32.1885 31.4941 31.0182 31.4941 29.4929C31.4941 27.7178 32.1614 26.324 33.483 25.3116C34.8045 24.3123 36.6887 23.8126 39.1355 23.8126C39.4364 23.8126 40.0252 23.8389 40.6402 23.9441M40.6533 26.6791C40.1561 26.5739 39.7112 26.5344 39.2794 26.5344C36.4662 26.5344 34.9354 27.468 34.9354 29.322C34.9354 30.7026 35.8513 31.3864 37.4345 31.3864C39.5803 31.3864 40.6533 30.3082 40.6533 28.1517V26.6791Z" fill="white"/>
<path d="M46.7127 21.4721H44.9463V18.5925H46.7127V17.5143C46.7127 15.6998 48.7146 14.8845 50.2848 14.8845V18.5925H53.9222V21.4721H50.2848V28.2044C50.2848 29.3089 50.4549 30.0846 50.795 30.5317C51.1352 30.9788 51.7371 31.2155 52.6007 31.2155C53.4643 31.2155 54.2755 30.9393 54.9952 30.5186C55.5578 32.9248 53.5559 34.2528 51.4493 34.2528C49.9315 34.2528 48.7539 33.8189 47.9426 32.9511C47.1314 32.0833 46.7127 30.8604 46.7127 29.2563V21.4853V21.4721Z" fill="white"/>
<path d="M60.1363 32.1885C60.1363 33.2667 59.2727 34.1345 58.1998 34.1345C57.1269 34.1345 56.2764 33.2667 56.2764 32.1885C56.2764 31.1103 57.1399 30.2556 58.1998 30.2556C59.2596 30.2556 60.1363 31.1234 60.1363 32.1885Z" fill="#95C11F"/>
</svg>
