<svg width="208" height="78" viewBox="0 0 208 78" fill="none" xmlns="http://www.w3.org/2000/svg">
<path d="M190.857 72.8172H189.163V67.3832H190.857C191.584 67.3832 192.194 67.5776 192.687 67.9662C193.18 68.355 193.426 69.0699 193.426 70.1115C193.426 71.9155 192.569 72.8172 190.857 72.8172ZM193.113 66.4606C192.488 66.1247 191.736 65.9567 190.857 65.9567H187.571V74.2437H190.857C191.751 74.2437 192.511 74.0757 193.136 73.7399C193.761 73.4041 194.233 72.9248 194.551 72.3021C194.87 71.6794 195.029 70.9455 195.029 70.1002C195.029 69.255 194.866 68.5209 194.54 67.8983C194.214 67.2756 193.739 66.7964 193.113 66.4606ZM93.2427 49.8778H82.2271C82.2271 49.8778 82.2101 49.6658 82.1817 49.2935V35.7762C82.2052 35.826 82.2294 35.8814 82.2546 35.944C83.3537 38.6806 87.2616 38.8299 92.1469 39.7751C96.8556 40.6862 101.529 40.9725 101.515 45.4899C101.502 49.693 97.6231 49.9662 93.2427 49.8778ZM82.2046 18.4695H92.3777C97.2187 18.4695 100.235 20.8451 100.235 24.7578C100.235 28.6006 97.1485 31.1159 92.4479 31.1159C87.1158 31.1159 82.2046 28.7403 82.2046 21.474V18.4695ZM95.3243 34.0504C102.831 33.5613 110.409 29.9281 110.409 21.6836C110.409 14.4871 104.515 9.73596 94.4123 9.73596H72.3823V58.6442H95.2542C105.497 58.6442 112.513 54.3124 112.513 46.6268C112.513 38.0329 104.375 34.9587 95.3243 34.0504ZM183.169 39.0797C180.555 39.0797 178.092 39.7185 175.926 40.8466L179.994 29.2461C181.747 24.1486 182.799 18.9114 183.15 16.4673C183.5 18.9114 184.552 24.1486 186.305 29.2461L190.364 40.8213C188.21 39.7089 185.764 39.0797 183.169 39.0797ZM189.46 9.76373H176.628L158.748 58.6442H167.178C168.588 58.6442 169.861 57.8143 170.435 56.5315C172.725 51.4058 176.122 46.494 183.15 46.494C190.113 46.494 193.448 51.4013 195.724 56.5244C196.296 57.8109 197.571 58.6442 198.984 58.6442H207.411L189.46 9.76373ZM164.319 71.4846C164.085 71.9024 163.768 72.2291 163.367 72.465C162.966 72.7011 162.525 72.819 162.044 72.819C161.57 72.819 161.132 72.7011 160.731 72.465C160.33 72.2291 160.011 71.9024 159.774 71.4846C159.537 71.0672 159.419 70.6042 159.419 70.0959C159.419 69.5877 159.537 69.1264 159.774 68.7125C160.011 68.2986 160.33 67.9736 160.731 67.7376C161.132 67.5018 161.57 67.3836 162.044 67.3836C162.525 67.3836 162.966 67.5018 163.367 67.7376C163.768 67.9736 164.085 68.2986 164.319 68.7125C164.552 69.1264 164.669 69.5877 164.669 70.0959C164.669 70.6042 164.552 71.0672 164.319 71.4846ZM164.215 66.5122C163.584 66.1418 162.86 65.9567 162.044 65.9567C161.227 65.9567 160.505 66.1418 159.878 66.5122C159.251 66.8825 158.764 67.3819 158.418 68.0099C158.072 68.638 157.898 69.3334 157.898 70.0959C157.898 70.8583 158.072 71.5555 158.418 72.1873C158.764 72.819 159.251 73.3184 159.878 73.685C160.505 74.0518 161.227 74.2351 162.044 74.2351C162.86 74.2351 163.584 74.0518 164.215 73.685C164.846 73.3184 165.334 72.819 165.681 72.1873C166.027 71.5555 166.2 70.8583 166.2 70.0959C166.2 69.3334 166.027 68.638 165.681 68.0099C165.334 67.3819 164.846 66.8825 164.215 66.5122ZM127.089 24.0491C127.088 22.6875 127.089 18.4963 127.089 18.4963H136.485C142.72 18.4963 146.223 21.2171 146.223 25.5425C146.223 29.5889 142.72 32.5189 137.326 32.5189C132.028 32.5189 127.09 29.9298 127.089 24.0491ZM138.867 37.1931C139.358 37.4025 140.058 37.5419 140.689 37.5419C148.044 37.5419 155.82 33.0072 155.82 24.0077C155.82 15.4267 149.585 9.77584 138.587 9.77584H117.291V16.0132H117.283V58.6225H127.089V37.6277C128.722 39.6234 131.131 41.4184 136.44 45.8497C144.452 52.5375 145.742 58.6225 145.742 58.6225H156.294C154.473 46.065 145.172 41.3092 138.867 37.1931ZM145.787 74.2422H146.628C146.87 74.2422 147.056 74.1782 147.185 74.0497C147.313 73.9216 147.378 73.7367 147.378 73.4952V70.9824H150.185C150.428 70.9824 150.613 70.9183 150.742 70.7899C150.871 70.6617 150.935 70.4769 150.935 70.2353V69.5788H147.378V67.3602H151.151C151.394 67.3602 151.579 67.2999 151.708 67.1791C151.837 67.0585 151.902 66.8848 151.902 66.6585V65.9567H145.787V74.2422ZM179.541 71.4753C179.307 71.8924 178.991 72.2186 178.591 72.4541C178.19 72.6897 177.75 72.8075 177.269 72.8075C176.796 72.8075 176.359 72.6897 175.959 72.4541C175.558 72.2186 175.24 71.8924 175.003 71.4753C174.767 71.0586 174.649 70.5964 174.649 70.089C174.649 69.5816 174.767 69.1211 175.003 68.7079C175.24 68.2946 175.558 67.9703 175.959 67.7347C176.359 67.4991 176.796 67.3811 177.269 67.3811C177.75 67.3811 178.19 67.4991 178.591 67.7347C178.991 67.9703 179.307 68.2946 179.541 68.7079C179.773 69.1211 179.89 69.5816 179.89 70.089C179.89 70.5964 179.773 71.0586 179.541 71.4753ZM179.437 66.5113C178.807 66.1415 178.084 65.9567 177.269 65.9567C176.454 65.9567 175.733 66.1415 175.107 66.5113C174.481 66.8809 173.995 67.3795 173.649 68.0065C173.304 68.6335 173.131 69.3278 173.131 70.089C173.131 70.8501 173.304 71.5461 173.649 72.1768C173.995 72.8075 174.481 73.306 175.107 73.672C175.733 74.0382 176.454 74.2212 177.269 74.2212C178.084 74.2212 178.807 74.0382 179.437 73.672C180.066 73.306 180.554 72.8075 180.9 72.1768C181.246 71.5461 181.419 70.8501 181.419 70.089C181.419 69.3278 181.246 68.6335 180.9 68.0065C180.554 67.3795 180.066 66.8809 179.437 66.5113ZM201.441 11.816H202.252C202.373 11.816 202.476 11.8324 202.559 11.8655C202.643 11.8983 202.707 11.9494 202.751 12.0186C202.795 12.0878 202.818 12.1729 202.818 12.274C202.818 12.3751 202.794 12.4602 202.748 12.5294C202.702 12.5985 202.631 12.6502 202.536 12.6842C202.441 12.7183 202.325 12.7352 202.186 12.7352H201.441V11.816ZM201.441 13.2855H202.199C202.322 13.2855 202.424 13.3015 202.505 13.3333C202.585 13.3651 202.646 13.4152 202.685 13.4832C202.725 13.5513 202.749 13.6413 202.758 13.7534L202.785 14.1224C202.793 14.2433 202.807 14.3415 202.824 14.4173C202.842 14.4931 202.871 14.5585 202.91 14.6134H203.575C203.527 14.5388 203.491 14.4657 203.469 14.3943C203.447 14.3229 203.432 14.2324 203.423 14.1224L203.383 13.6413C203.37 13.4832 203.335 13.3563 203.277 13.2608C203.22 13.1653 203.136 13.0956 203.024 13.0516C202.95 13.0225 202.86 13.0013 202.757 12.9867C202.89 12.9526 203.003 12.906 203.097 12.8457C203.228 12.7611 203.324 12.6573 203.383 12.5343C203.443 12.4113 203.473 12.274 203.473 12.1224C203.473 11.9269 203.424 11.7649 203.327 11.6365C203.23 11.5079 203.093 11.4123 202.915 11.3498C202.738 11.2871 202.525 11.2559 202.278 11.2559H200.806V14.6134H201.441V13.2855ZM206.985 70.3856C206.7 70.0502 206.372 69.8169 206.002 69.6857C205.633 69.5544 205.195 69.4415 204.69 69.3466C204.646 69.3395 204.599 69.3322 204.547 69.3247C204.496 69.3176 204.445 69.3068 204.394 69.292C203.991 69.2119 203.669 69.1352 203.427 69.0623C203.186 68.9895 202.975 68.8819 202.796 68.7398C202.616 68.5976 202.527 68.4135 202.527 68.1876C202.527 67.9033 202.662 67.6973 202.933 67.5697C203.204 67.4422 203.519 67.3783 203.878 67.3783C204.449 67.3783 205.023 67.5169 205.602 67.7939C205.763 67.8741 205.909 67.9142 206.041 67.9142C206.26 67.9142 206.447 67.8047 206.601 67.586L207.04 66.9846C206.586 66.6421 206.13 66.385 205.673 66.2137C205.215 66.0425 204.672 65.9567 204.042 65.9567C203.222 65.9567 202.509 66.141 201.901 66.5089C201.293 66.8771 200.99 67.4877 200.99 68.3406C200.99 68.9311 201.162 69.3923 201.506 69.7239C201.85 70.0557 202.214 70.2816 202.598 70.4019C202.983 70.5222 203.467 70.6408 204.053 70.7573C204.471 70.8376 204.798 70.9141 205.036 70.987C205.274 71.06 205.473 71.1674 205.635 71.3095C205.795 71.4517 205.876 71.6395 205.876 71.8727C205.876 72.1498 205.753 72.3777 205.508 72.5562C205.263 72.7349 204.873 72.824 204.339 72.824C204.024 72.824 203.687 72.7694 203.329 72.66C202.97 72.5507 202.626 72.4123 202.296 72.2445C202.128 72.1571 201.978 72.1133 201.846 72.1133C201.634 72.1133 201.454 72.2226 201.308 72.4414L200.924 73.021C201.451 73.4146 201.967 73.7154 202.472 73.9231C202.977 74.1309 203.607 74.2348 204.361 74.2348C205.298 74.2348 206.041 74.027 206.59 73.6114C207.139 73.1959 207.413 72.5873 207.413 71.7853C207.413 71.1875 207.271 70.7209 206.985 70.3856ZM55.7055 15.3475V58.6442H59.9312C63.0137 58.6442 65.5126 56.1557 65.5126 53.0858V9.78904H61.287C58.2044 9.78904 55.7055 12.2776 55.7055 15.3475ZM199.83 11.6891C200.057 11.3014 200.369 10.9955 200.766 10.7715C201.163 10.5475 201.603 10.4354 202.086 10.4354C202.567 10.4354 203.006 10.5475 203.402 10.7715C203.797 10.9955 204.108 11.3014 204.335 11.6891C204.561 12.0769 204.674 12.5047 204.674 12.9725C204.674 13.4404 204.561 13.867 204.335 14.2526C204.108 14.6382 203.798 14.9418 203.403 15.1636C203.008 15.3856 202.569 15.4964 202.086 15.4964C201.603 15.4964 201.163 15.3856 200.766 15.1636C200.369 14.9418 200.057 14.6382 199.83 14.2526C199.603 13.867 199.489 13.4404 199.489 12.9725C199.489 12.5047 199.603 12.0769 199.83 11.6891ZM200.422 15.7222C200.925 16.0044 201.48 16.1456 202.086 16.1456C202.691 16.1456 203.244 16.0044 203.747 15.7222C204.25 15.4399 204.647 15.0561 204.937 14.5705C205.227 14.0852 205.372 13.5524 205.372 12.9725C205.372 12.3904 205.227 11.8567 204.937 11.3712C204.647 10.8857 204.25 10.5019 203.747 10.2196C203.244 9.93731 202.691 9.79617 202.086 9.79617C201.48 9.79617 200.925 9.93731 200.422 10.2196C199.919 10.5019 199.522 10.8857 199.229 11.3712C198.937 11.8567 198.791 12.3904 198.791 12.9725C198.791 13.5524 198.937 14.0852 199.229 14.5705C199.522 15.0561 199.919 15.4399 200.422 15.7222ZM15.3599 9.77633H0.244995L28.5557 58.6442L31.8286 52.9799C34.4823 48.3871 34.4775 42.7341 31.816 38.1458L15.3599 9.77633ZM33.6987 18.9421L33.6892 34.1635H34.8566C42.3653 34.1635 48.4523 28.1015 48.4523 20.6239V9.77584H42.9087C37.8244 9.77584 33.7018 13.8787 33.6987 18.9421Z" fill="white"/>
</svg>
